# This file uses centimeters as units for non-parametric coordinates.

mtllib CaixinhaA.mtl
g default
v -0.377504 0.042346 0.624552
v 0.373587 0.042346 0.624552
v -0.377504 0.571024 0.624552
v 0.373587 0.571024 0.624552
v -0.377504 0.571024 -0.658910
v 0.373587 0.571024 -0.658910
v -0.377504 0.042346 -0.658910
v 0.373587 0.042346 -0.658910
v -0.377504 0.571024 -0.424977
v 0.373587 0.571024 -0.424977
v 0.373587 0.042346 -0.424977
v -0.377504 0.042346 -0.424977
v -0.377504 0.571024 0.411335
v 0.373587 0.571024 0.411335
v 0.373587 0.042346 0.411335
v -0.377504 0.042346 0.411335
v 0.373587 0.042346 0.222629
v 0.373587 0.571024 0.222629
v -0.377504 0.571024 0.222629
v -0.377504 0.042346 0.222629
v 0.373587 0.042346 -0.236270
v 0.373587 0.571024 -0.236270
v -0.377504 0.571024 -0.236270
v -0.377504 0.042346 -0.236270
v -0.405276 0.598796 0.411335
v 0.401359 0.598796 0.411335
v 0.401359 0.598796 0.222629
v -0.405276 0.598796 0.222629
v 0.401359 0.014574 0.411335
v 0.401359 0.014574 0.222629
v -0.405276 0.014574 0.222629
v -0.405276 0.014574 0.411335
v 0.401359 0.014574 -0.236270
v 0.401359 0.598796 -0.236270
v 0.401359 0.014574 -0.424977
v 0.401359 0.598796 -0.424977
v -0.405276 0.598796 -0.236270
v -0.405276 0.598796 -0.424977
v -0.405276 0.014574 -0.424977
v -0.405276 0.014574 -0.236270
v -0.327419 0.092330 0.624552
v 0.323502 0.092330 0.624552
v 0.323502 0.521040 0.624552
v -0.327419 0.521040 0.624552
v -0.327419 0.521040 -0.658910
v 0.323502 0.521040 -0.658910
v 0.323502 0.092330 -0.658910
v -0.327419 0.092330 -0.658910
v -0.327419 0.092330 0.588334
v 0.323502 0.092330 0.588334
v 0.323502 0.521040 0.588334
v -0.327419 0.521040 0.588334
v -0.327419 0.521040 -0.622691
v 0.323502 0.521040 -0.622691
v 0.323502 0.092330 -0.622691
v -0.327419 0.092330 -0.622691
v 0.298994 0.047208 -0.608576
v 0.361270 0.146643 -0.608284
v -0.363075 0.461863 -0.610798
v -0.300800 0.561298 -0.610506
v -0.362939 0.461885 -0.647244
v -0.300664 0.561320 -0.646953
v 0.299130 0.047230 -0.645022
v 0.361405 0.146665 -0.644730
v -0.363448 0.147782 0.615775
v -0.301463 0.048166 0.616067
v 0.299834 0.560494 0.613553
v 0.361819 0.460878 0.613845
v 0.299794 0.560362 0.577107
v 0.361779 0.460746 0.577398
v -0.363488 0.147650 0.579329
v -0.301503 0.048034 0.579621
vt 0.375000 0.000000
vt 0.625000 0.000000
vt 0.375000 0.250000
vt 0.625000 0.250000
vt 0.375000 0.500000
vt 0.625000 0.500000
vt 0.375000 0.750000
vt 0.625000 0.750000
vt 0.375000 1.000000
vt 0.625000 1.000000
vt 0.875000 0.000000
vt 0.875000 0.250000
vt 0.125000 0.000000
vt 0.125000 0.250000
vt 0.164944 0.250000
vt 0.375000 0.460056
vt 0.625000 0.460056
vt 0.835056 0.250000
vt 0.625000 0.789944
vt 0.835056 0.000000
vt 0.164944 0.000000
vt 0.375000 0.789944
vt 0.332326 0.250000
vt 0.375000 0.292674
vt 0.625000 0.292674
vt 0.667674 0.250000
vt 0.625000 0.957326
vt 0.667674 0.000000
vt 0.332326 0.000000
vt 0.375000 0.957326
vt 0.625000 0.919558
vt 0.705442 0.000000
vt 0.625000 0.330442
vt 0.705442 0.250000
vt 0.294558 0.250000
vt 0.375000 0.330442
vt 0.294558 0.000000
vt 0.375000 0.919558
vt 0.625000 0.827712
vt 0.797288 0.000000
vt 0.625000 0.422288
vt 0.797288 0.250000
vt 0.202712 0.250000
vt 0.375000 0.422288
vt 0.202712 0.000000
vt 0.375000 0.827712
vt 0.375000 0.292674
vt 0.625000 0.292674
vt 0.625000 0.330442
vt 0.375000 0.330442
vt 0.667674 0.250000
vt 0.667674 0.000000
vt 0.705442 0.000000
vt 0.705442 0.250000
vt 0.375000 0.919558
vt 0.625000 0.919558
vt 0.625000 0.957326
vt 0.375000 0.957326
vt 0.294558 0.250000
vt 0.294558 0.000000
vt 0.332326 0.000000
vt 0.332326 0.250000
vt 0.797288 0.250000
vt 0.797288 0.000000
vt 0.835056 0.000000
vt 0.835056 0.250000
vt 0.375000 0.422288
vt 0.625000 0.422288
vt 0.625000 0.460056
vt 0.375000 0.460056
vt 0.164944 0.250000
vt 0.164944 0.000000
vt 0.202712 0.000000
vt 0.202712 0.250000
vt 0.375000 0.789944
vt 0.625000 0.789944
vt 0.625000 0.827712
vt 0.375000 0.827712
vt 0.375000 0.000000
vt 0.625000 0.000000
vt 0.625000 0.250000
vt 0.375000 0.250000
vt 0.375000 0.500000
vt 0.625000 0.500000
vt 0.625000 0.750000
vt 0.375000 0.750000
vt 0.375000 0.000000
vt 0.625000 0.000000
vt 0.625000 0.250000
vt 0.375000 0.250000
vt 0.375000 0.500000
vt 0.625000 0.500000
vt 0.625000 0.750000
vt 0.375000 0.750000
vt 0.375000 0.000000
vt 0.625000 0.000000
vt 0.625000 0.250000
vt 0.375000 0.250000
vt 0.625000 0.500000
vt 0.375000 0.500000
vt 0.625000 0.750000
vt 0.375000 0.750000
vt 0.625000 1.000000
vt 0.375000 1.000000
vt 0.875000 0.000000
vt 0.875000 0.250000
vt 0.125000 0.000000
vt 0.125000 0.250000
vt 0.375000 0.000000
vt 0.625000 0.000000
vt 0.625000 0.250000
vt 0.375000 0.250000
vt 0.625000 0.500000
vt 0.375000 0.500000
vt 0.625000 0.750000
vt 0.375000 0.750000
vt 0.625000 1.000000
vt 0.375000 1.000000
vt 0.875000 0.000000
vt 0.875000 0.250000
vt 0.125000 0.000000
vt 0.125000 0.250000
vn 0.000000 0.000000 1.000000
vn 0.000000 0.000000 1.000000
vn 0.000000 0.000000 1.000000
vn 0.000000 0.000000 1.000000
vn 0.000000 1.000000 0.000000
vn 0.000000 1.000000 0.000000
vn 0.000000 1.000000 0.000000
vn 0.000000 1.000000 0.000000
vn 0.000000 0.000000 -1.000000
vn 0.000000 0.000000 -1.000000
vn 0.000000 0.000000 -1.000000
vn 0.000000 0.000000 -1.000000
vn 0.000000 -1.000000 0.000000
vn 0.000000 -1.000000 0.000000
vn 0.000000 -1.000000 0.000000
vn 0.000000 -1.000000 0.000000
vn 1.000000 0.000000 0.000000
vn 1.000000 0.000000 0.000000
vn 1.000000 0.000000 0.000000
vn 1.000000 0.000000 0.000000
vn -1.000000 0.000000 0.000000
vn -1.000000 0.000000 0.000000
vn -1.000000 0.000000 0.000000
vn -1.000000 0.000000 0.000000
vn 0.000000 1.000000 0.000000
vn 0.000000 1.000000 0.000000
vn 0.000000 1.000000 0.000000
vn 0.000000 1.000000 0.000000
vn 1.000000 0.000000 0.000000
vn 1.000000 0.000000 0.000000
vn 1.000000 0.000000 0.000000
vn 1.000000 0.000000 0.000000
vn 0.000000 -1.000000 0.000000
vn 0.000000 -1.000000 0.000000
vn 0.000000 -1.000000 0.000000
vn 0.000000 -1.000000 0.000000
vn -1.000000 0.000000 0.000000
vn -1.000000 0.000000 0.000000
vn -1.000000 0.000000 0.000000
vn -1.000000 0.000000 0.000000
vn 0.000000 1.000000 0.000000
vn 0.000000 1.000000 0.000000
vn 0.000000 1.000000 0.000000
vn 0.000000 1.000000 0.000000
vn 1.000000 0.000000 0.000000
vn 1.000000 0.000000 0.000000
vn 1.000000 0.000000 0.000000
vn 1.000000 0.000000 0.000000
vn 0.000000 -1.000000 0.000000
vn 0.000000 -1.000000 0.000000
vn 0.000000 -1.000000 0.000000
vn 0.000000 -1.000000 0.000000
vn -1.000000 0.000000 0.000000
vn -1.000000 0.000000 0.000000
vn -1.000000 0.000000 0.000000
vn -1.000000 0.000000 0.000000
vn 1.000000 0.000000 0.000000
vn 1.000000 0.000000 0.000000
vn 1.000000 0.000000 0.000000
vn 1.000000 0.000000 0.000000
vn 0.000000 1.000000 0.000000
vn 0.000000 1.000000 0.000000
vn 0.000000 1.000000 0.000000
vn 0.000000 1.000000 0.000000
vn -1.000000 0.000000 0.000000
vn -1.000000 0.000000 0.000000
vn -1.000000 0.000000 0.000000
vn -1.000000 0.000000 0.000000
vn 0.000000 -1.000000 0.000000
vn 0.000000 -1.000000 0.000000
vn 0.000000 -1.000000 0.000000
vn 0.000000 -1.000000 0.000000
vn 1.000000 0.000000 0.000000
vn 1.000000 0.000000 0.000000
vn 1.000000 0.000000 0.000000
vn 1.000000 0.000000 0.000000
vn 0.000000 1.000000 0.000000
vn 0.000000 1.000000 0.000000
vn 0.000000 1.000000 0.000000
vn 0.000000 1.000000 0.000000
vn -1.000000 0.000000 0.000000
vn -1.000000 0.000000 0.000000
vn -1.000000 0.000000 0.000000
vn -1.000000 0.000000 0.000000
vn 0.000000 -1.000000 0.000000
vn 0.000000 -1.000000 0.000000
vn 0.000000 -1.000000 0.000000
vn 0.000000 -1.000000 0.000000
vn -0.000001 0.000000 1.000000
vn 0.000001 0.000000 1.000000
vn 0.000001 0.000000 1.000000
vn -0.000001 0.000000 1.000000
vn -0.000000 0.000000 -1.000000
vn 0.000000 0.000000 -1.000000
vn 0.000000 0.000000 -1.000000
vn -0.000000 0.000000 -1.000000
vn 0.000001 0.000000 1.000000
vn 0.000001 0.000000 1.000000
vn -0.000000 0.000000 -1.000000
vn -0.000000 0.000000 -1.000000
vn 0.000000 0.000000 -1.000000
vn 0.000000 0.000000 -1.000000
vn -0.000001 0.000000 1.000000
vn -0.000001 0.000000 1.000000
vn -0.000000 0.000000 1.000000
vn -0.000000 0.000000 1.000000
vn -0.000000 0.000000 1.000000
vn -0.000000 0.000000 1.000000
vn 0.000000 0.000000 -1.000000
vn 0.000000 0.000000 -1.000000
vn 0.000000 0.000000 -1.000000
vn 0.000000 0.000000 -1.000000
vn 0.000000 0.000000 1.000000
vn 0.000000 0.000000 1.000000
vn -0.000000 0.000000 -1.000000
vn -0.000000 0.000000 -1.000000
vn -0.000000 0.000000 -1.000000
vn -0.000000 0.000000 -1.000000
vn 0.000000 0.000000 1.000000
vn 0.000000 0.000000 1.000000
vn 0.000000 0.000000 1.000000
vn 0.000000 0.000000 1.000000
vn 0.000000 0.000000 1.000000
vn 0.000000 0.000000 1.000000
vn -0.000001 0.000000 1.000000
vn -0.000001 0.000000 1.000000
vn -0.000001 0.000000 1.000000
vn -0.000001 0.000000 1.000000
vn 0.000000 0.000000 1.000000
vn 0.000000 0.000000 1.000000
vn 0.000000 0.000000 1.000000
vn 0.000000 0.000000 1.000000
vn 0.000001 0.000000 1.000000
vn 0.000001 0.000000 1.000000
vn 0.000001 0.000000 1.000000
vn 0.000001 0.000000 1.000000
vn 0.000000 0.000000 -1.000000
vn 0.000000 0.000000 -1.000000
vn 0.000000 0.000000 -1.000000
vn 0.000000 0.000000 -1.000000
vn 0.000000 0.000000 -1.000000
vn 0.000000 0.000000 -1.000000
vn 0.000000 0.000000 -1.000000
vn 0.000000 0.000000 -1.000000
vn 0.000000 0.000000 -1.000000
vn 0.000000 0.000000 -1.000000
vn 0.000000 0.000000 -1.000000
vn 0.000000 0.000000 -1.000000
vn -0.000000 0.000000 -1.000000
vn -0.000000 0.000000 -1.000000
vn -0.000000 0.000000 -1.000000
vn -0.000000 0.000000 -1.000000
vn 0.000000 1.000000 0.000000
vn 0.000000 1.000000 0.000000
vn 0.000000 1.000000 0.000000
vn 0.000000 1.000000 0.000000
vn -1.000000 0.000000 0.000000
vn -1.000000 0.000000 0.000000
vn -1.000000 0.000000 0.000000
vn -1.000000 0.000000 0.000000
vn 0.000000 -1.000000 0.000000
vn 0.000000 -1.000000 0.000000
vn 0.000000 -1.000000 0.000000
vn 0.000000 -1.000000 0.000000
vn 1.000000 0.000000 0.000000
vn 1.000000 0.000000 0.000000
vn 1.000000 0.000000 0.000000
vn 1.000000 0.000000 0.000000
vn 0.000000 -1.000000 0.000000
vn 0.000000 -1.000000 0.000000
vn 0.000000 -1.000000 0.000000
vn 0.000000 -1.000000 0.000000
vn -1.000000 0.000000 0.000000
vn -1.000000 0.000000 0.000000
vn -1.000000 0.000000 0.000000
vn -1.000000 0.000000 0.000000
vn 0.000000 1.000000 0.000000
vn 0.000000 1.000000 0.000000
vn 0.000000 1.000000 0.000000
vn 0.000000 1.000000 0.000000
vn 1.000000 0.000000 0.000000
vn 1.000000 0.000000 0.000000
vn 1.000000 0.000000 0.000000
vn 1.000000 0.000000 0.000000
vn -0.003730 -0.000597 0.999993
vn -0.003730 -0.000597 0.999993
vn -0.003730 -0.000597 0.999993
vn -0.003730 -0.000597 0.999993
vn -0.847499 0.530789 -0.002845
vn -0.847499 0.530789 -0.002845
vn -0.847499 0.530789 -0.002845
vn -0.847499 0.530789 -0.002845
vn 0.003730 0.000597 -0.999993
vn 0.003730 0.000597 -0.999993
vn 0.003730 0.000597 -0.999993
vn 0.003730 0.000597 -0.999993
vn 0.847499 -0.530789 0.002845
vn 0.847499 -0.530789 0.002845
vn 0.847499 -0.530789 0.002845
vn 0.847499 -0.530789 0.002845
vn 0.530784 0.847504 0.002486
vn 0.530784 0.847504 0.002486
vn 0.530784 0.847504 0.002486
vn 0.530784 0.847504 0.002486
vn -0.530785 -0.847503 -0.002486
vn -0.530785 -0.847503 -0.002486
vn -0.530785 -0.847503 -0.002486
vn -0.530785 -0.847503 -0.002486
vn 0.001102 0.003613 0.999993
vn 0.001102 0.003613 0.999993
vn 0.001102 0.003613 0.999993
vn 0.001102 0.003613 0.999993
vn 0.849051 0.528303 -0.002845
vn 0.849051 0.528303 -0.002845
vn 0.849051 0.528303 -0.002845
vn 0.849051 0.528303 -0.002845
vn -0.001102 -0.003613 -0.999993
vn -0.001102 -0.003613 -0.999993
vn -0.001102 -0.003613 -0.999993
vn -0.001102 -0.003613 -0.999993
vn -0.849051 -0.528303 0.002845
vn -0.849051 -0.528303 0.002845
vn -0.849051 -0.528303 0.002845
vn -0.849051 -0.528303 0.002845
vn 0.528310 -0.849048 0.002486
vn 0.528310 -0.849048 0.002486
vn 0.528310 -0.849048 0.002486
vn 0.528310 -0.849048 0.002486
vn -0.528310 0.849048 -0.002486
vn -0.528310 0.849048 -0.002486
vn -0.528310 0.849048 -0.002486
vn -0.528310 0.849048 -0.002486
s off
g Caixinha_1
usemtl initialShadingGroup
f 49/87/1 50/88/2 51/89/3 52/90/4
f 9/16/5 10/17/6 6/6/7 5/5/8
f 53/91/9 54/92/10 55/93/11 56/94/12
f 7/7/13 8/8/14 11/19/15 12/22/16
f 10/18/17 11/20/18 8/11/19 6/12/20
f 7/13/21 12/21/22 9/15/23 5/14/24
f 25/47/25 26/48/26 27/49/27 28/50/28
f 26/51/29 29/52/30 30/53/31 27/54/32
f 31/55/33 30/56/34 29/57/35 32/58/36
f 28/59/37 31/60/38 32/61/39 25/62/40
f 3/3/41 4/4/42 14/25/43 13/24/44
f 2/2/45 15/28/46 14/26/47 4/4/48
f 16/30/49 15/27/50 2/10/51 1/9/52
f 13/23/53 16/29/54 1/1/55 3/3/56
f 18/34/57 17/32/58 21/40/59 22/42/60
f 19/36/61 18/33/62 22/41/63 23/44/64
f 23/43/65 24/45/66 20/37/67 19/35/68
f 24/46/69 21/39/70 17/31/71 20/38/72
f 34/63/73 33/64/74 35/65/75 36/66/76
f 37/67/77 34/68/78 36/69/79 38/70/80
f 38/71/81 39/72/82 40/73/83 37/74/84
f 39/75/85 35/76/86 33/77/87 40/78/88
s 1
f 13/24/89 14/25/90 26/48/91 25/47/92
s 2
f 18/33/93 19/36/94 28/50/95 27/49/96
s 1
f 14/26/90 15/28/97 29/52/98 26/51/91
s 2
f 17/32/99 18/34/93 27/54/96 30/53/100
f 20/38/101 17/31/99 30/56/100 31/55/102
s 1
f 15/27/97 16/30/103 32/58/104 29/57/98
s 2
f 19/35/94 20/37/101 31/60/102 28/59/95
s 1
f 16/29/103 13/23/89 25/62/92 32/61/104
s 3
f 22/42/105 21/40/106 33/64/107 34/63/108
s 4
f 11/20/109 10/18/110 36/66/111 35/65/112
s 3
f 23/44/113 22/41/105 34/68/108 37/67/114
s 4
f 10/17/110 9/16/115 38/70/116 36/69/111
f 9/15/115 12/21/117 39/72/118 38/71/116
s 3
f 24/45/119 23/43/113 37/74/114 40/73/120
s 4
f 12/22/117 11/19/109 35/76/112 39/75/118
s 3
f 21/39/106 24/46/119 40/78/120 33/77/107
s off
f 1/1/121 2/2/122 42/80/123 41/79/124
f 2/2/125 4/4/126 43/81/127 42/80/128
f 4/4/129 3/3/130 44/82/131 43/81/132
f 3/3/133 1/1/134 41/79/135 44/82/136
f 5/5/137 6/6/138 46/84/139 45/83/140
f 6/6/141 8/8/142 47/85/143 46/84/144
f 8/8/145 7/7/146 48/86/147 47/85/148
f 7/7/149 5/5/150 45/83/151 48/86/152
f 41/79/153 42/80/154 50/88/155 49/87/156
f 42/80/157 43/81/158 51/89/159 50/88/160
f 43/81/161 44/82/162 52/90/163 51/89/164
f 44/82/165 41/79/166 49/87/167 52/90/168
f 45/83/169 46/84/170 54/92/171 53/91/172
f 46/84/173 47/85/174 55/93/175 54/92/176
f 47/85/177 48/86/178 56/94/179 55/93/180
f 48/86/181 45/83/182 53/91/183 56/94/184
f 57/95/185 58/96/186 60/97/187 59/98/188
f 59/98/189 60/97/190 62/99/191 61/100/192
f 61/100/193 62/99/194 64/101/195 63/102/196
f 63/102/197 64/101/198 58/103/199 57/104/200
f 58/96/201 64/105/202 62/106/203 60/97/204
f 63/107/205 57/95/206 59/98/207 61/108/208
f 65/109/209 66/110/210 68/111/211 67/112/212
f 67/112/213 68/111/214 70/113/215 69/114/216
f 69/114/217 70/113/218 72/115/219 71/116/220
f 71/116/221 72/115/222 66/117/223 65/118/224
f 66/110/225 72/119/226 70/120/227 68/111/228
f 71/121/229 65/109/230 67/112/231 69/122/232
