# This file uses centimeters as units for non-parametric coordinates.

mtllib PedrinhaB.mtl
g default
v 1.138016 0.026800 -0.853724
v -0.033281 0.026800 -1.335044
v -1.146386 0.026800 -0.853724
v -1.476127 0.026800 0.005717
v -1.000107 0.026800 0.820559
v 0.113758 0.026800 1.265301
v 1.268870 0.026800 0.730705
v 1.678058 0.026800 0.015010
v 0.000000 0.026800 0.000000
v 0.000000 1.845249 0.000000
v 0.984872 0.957956 -0.897245
v -0.008763 0.957956 -1.296431
v -0.953033 0.957956 -0.897245
v -1.318603 0.957956 0.000000
v -0.891327 0.957956 0.685229
v 0.108478 0.957956 1.059227
v 1.145307 0.957956 0.609667
v 1.443001 0.957956 0.000000
v 0.820875 1.559149 -0.601047
v 0.663055 1.788429 -0.502669
v 0.398258 1.859190 -0.352498
v 0.963951 1.704054 0.000000
v 0.739117 1.891954 0.000000
v 0.440899 1.924209 0.000000
v -0.004640 1.300693 -1.018459
v -0.001724 1.560783 -0.846325
v -0.000453 1.714675 -0.540164
v -0.687274 1.384710 -0.582191
v -0.525226 1.582501 -0.476067
v -0.336338 1.706067 -0.315009
v -1.017114 1.364780 0.000000
v -0.783586 1.577607 -0.018760
v -0.469628 1.707241 -0.072680
v -0.595025 1.525097 0.530302
v -0.429228 1.733466 0.414438
v -0.225450 1.823146 0.227482
v 0.092118 1.553432 0.871103
v 0.073772 1.793962 0.686407
v 0.041443 1.871493 0.382223
v 0.726769 1.684791 0.557219
v 0.526346 1.882103 0.467137
v 0.283018 1.916623 0.269412
vt 0.610485 0.045765
vt 0.500000 0.000000
vt 0.389515 0.045765
vt 0.343750 0.156250
vt 0.389515 0.266735
vt 0.500000 0.312500
vt 0.610485 0.266735
vt 0.656250 0.156250
vt 0.500000 0.150000
vt 0.375000 0.312500
vt 0.406250 0.312500
vt 0.375000 0.500489
vt 0.437500 0.312500
vt 0.468750 0.312500
vt 0.500000 0.312500
vt 0.531250 0.312500
vt 0.562500 0.312500
vt 0.593750 0.312500
vt 0.625000 0.312500
vt 0.625000 0.500489
vt 0.596663 0.636957
vt 0.377590 0.621856
vt 0.406250 0.500489
vt 0.408320 0.597498
vt 0.437500 0.500489
vt 0.440078 0.621278
vt 0.468750 0.500489
vt 0.471208 0.615638
vt 0.500000 0.500489
vt 0.502698 0.626922
vt 0.531250 0.500489
vt 0.533792 0.619599
vt 0.562500 0.500489
vt 0.565337 0.633434
vt 0.593750 0.500489
vt 0.500000 0.908141
vt 0.448805 0.891591
vt 0.433102 0.852184
vt 0.458936 0.798759
vt 0.500000 0.781603
vt 0.541982 0.798550
vt 0.565376 0.840115
vt 0.544905 0.892590
vt 0.500000 0.837500
vt 0.622410 0.621856
vt 0.590837 0.636957
vt 0.404180 0.597498
vt 0.434922 0.621278
vt 0.466292 0.615638
vt 0.497302 0.626922
vt 0.528708 0.619599
vt 0.559663 0.633434
vt 0.379011 0.688440
vt 0.582120 0.924266
vt 0.620989 0.688440
vt 0.616136 0.842145
vt 0.589739 0.688440
vt 0.597761 0.688440
vt 0.410261 0.688440
vt 0.500000 0.958281
vt 0.402239 0.688440
vt 0.441511 0.688440
vt 0.417880 0.924266
vt 0.433489 0.688440
vt 0.472761 0.688440
vt 0.383864 0.842145
vt 0.464739 0.688440
vt 0.504011 0.688440
vt 0.417880 0.760025
vt 0.495989 0.688440
vt 0.535261 0.688440
vt 0.500000 0.726010
vt 0.527239 0.688440
vt 0.582120 0.760025
vt 0.558489 0.688440
vt 0.566511 0.688440
vn 0.000000 -1.000000 -0.000000
vn 0.000000 -1.000000 -0.000000
vn 0.000000 -1.000000 -0.000000
vn 0.000000 -1.000000 0.000000
vn 0.000000 -1.000000 -0.000000
vn 0.000000 -1.000000 -0.000000
vn 0.000000 -1.000000 -0.000000
vn 0.000000 -1.000000 0.000000
vn 0.000000 -1.000000 0.000000
vn 0.376641 0.023573 -0.926060
vn 0.376641 0.023573 -0.926060
vn 0.359705 0.178733 -0.915788
vn 0.358847 0.184833 -0.914913
vn -0.393083 0.043565 -0.918471
vn -0.393083 0.043565 -0.918471
vn -0.390904 0.204330 -0.897465
vn -0.390252 0.217607 -0.894623
vn -0.917343 0.163236 -0.363092
vn -0.917343 0.163236 -0.363092
vn -0.882851 0.298528 -0.362568
vn -0.881476 0.302720 -0.362436
vn -0.845705 0.159502 0.509257
vn -0.845705 0.159502 0.509257
vn -0.821327 0.283016 0.495302
vn -0.826462 0.262081 0.498270
vn -0.354789 0.187628 0.915926
vn -0.354789 0.187628 0.915926
vn -0.361043 0.237533 0.901791
vn -0.360470 0.232638 0.903295
vn 0.402503 0.185309 0.896466
vn 0.402503 0.185309 0.896466
vn 0.396536 0.213391 0.892874
vn 0.395294 0.219023 0.892060
vn 0.864492 0.200156 0.461077
vn 0.864492 0.200156 0.461077
vn 0.845397 0.315026 0.431350
vn 0.840531 0.335760 0.425173
vn 0.858808 0.163763 -0.485418
vn 0.858808 0.163763 -0.485418
vn 0.849950 0.276547 -0.448449
vn 0.851136 0.267395 -0.451738
vn 0.791209 0.494963 -0.359165
vn 0.781183 0.515023 -0.352854
vn 0.269775 0.531190 -0.803156
vn 0.275098 0.531967 -0.800832
vn -0.342439 0.632527 -0.694727
vn -0.543662 0.651448 -0.529195
vn -0.703809 0.627777 -0.332489
vn -0.720813 0.551574 0.419756
vn -0.528820 0.489968 0.693023
vn -0.380219 0.397290 0.835221
vn 0.363506 0.334722 0.869382
vn 0.363114 0.335882 0.869098
vn 0.752048 0.556463 0.353231
vn 0.761378 0.540883 0.357420
vn -0.048602 0.943176 -0.328721
vn -0.174245 0.901857 -0.395338
vn -0.206801 0.965486 -0.158336
vn -0.291321 0.911581 -0.290091
vn -0.374421 0.920055 -0.115359
vn -0.301108 0.952265 0.050256
vn -0.173483 0.966690 0.188187
vn -0.037777 0.993019 0.111744
vn 0.030513 0.996439 -0.078606
vn 0.671239 0.683386 -0.287092
vn 0.671239 0.683386 -0.287092
vn 0.012794 0.931412 -0.363743
vn 0.112176 0.989557 -0.090518
vn 0.608572 0.739261 0.288329
vn 0.608572 0.739261 0.288329
vn 0.022320 0.987603 0.155378
vn -0.309540 0.736539 -0.601411
vn 0.243778 0.527153 -0.814053
vn 0.243778 0.527153 -0.814053
vn -0.461510 0.741774 -0.486600
vn -0.611154 0.790782 -0.033968
vn -0.464849 0.797243 0.385121
vn -0.158179 0.957331 0.241859
vn -0.402030 0.596924 0.694301
vn 0.250629 0.601345 0.758663
vn 0.250629 0.601345 0.758663
s 1
g Pedrinha_2
usemtl initialShadingGroup
f 2/2/1 1/1/2 9/9/3
f 3/3/4 2/2/1 9/9/3
f 4/4/5 3/3/4 9/9/3
f 5/5/6 4/4/5 9/9/3
f 6/6/7 5/5/6 9/9/3
f 7/7/8 6/6/7 9/9/3
f 8/8/9 7/7/8 9/9/3
f 1/1/2 8/8/9 9/9/3
s 2
f 1/10/10 2/11/11 12/23/12 11/12/13
s 3
f 2/11/14 3/13/15 13/25/16 12/23/17
f 3/13/18 4/14/19 14/27/20 13/25/21
f 4/14/22 5/15/23 15/29/24 14/27/25
f 5/15/26 6/16/27 16/31/28 15/29/29
s 7
f 6/16/30 7/17/31 17/33/32 16/31/33
s 8
f 7/17/34 8/18/35 18/35/36 17/33/37
s 9
f 8/18/38 1/19/39 11/20/40 18/35/41
f 11/20/40 19/45/42 22/21/43 18/35/41
s 2
f 19/22/44 11/12/13 12/23/12 25/47/45
s 3
f 25/24/46 12/23/17 13/25/16 28/48/47
f 28/26/47 13/25/21 14/27/20 31/49/48
f 31/28/49 14/27/25 15/29/24 34/50/50
f 34/30/50 15/29/29 16/31/28 37/51/51
s 7
f 37/32/52 16/31/33 17/33/32 40/52/53
s 8
f 40/34/54 17/33/37 18/35/36 22/46/55
s 3
f 21/43/56 27/36/57 10/44/58
f 27/36/57 30/37/59 10/44/58
f 30/37/59 33/38/60 10/44/58
f 33/38/60 36/39/61 10/44/58
f 36/39/61 39/40/62 10/44/58
f 39/40/62 42/41/63 10/44/58
f 42/41/63 24/42/64 10/44/58
f 24/42/64 21/43/56 10/44/58
s 9
f 19/45/42 20/55/65 23/58/66 22/21/43
s 3
f 20/54/67 21/43/56 24/42/64 23/56/68
s 8
f 22/46/55 23/57/69 41/76/70 40/34/54
s 3
f 23/56/68 24/42/64 42/41/63 41/74/71
f 21/43/56 20/54/67 26/60/72 27/36/57
s 2
f 20/53/73 19/22/44 25/47/45 26/61/74
s 3
f 27/36/57 26/60/72 29/63/75 30/37/59
f 26/59/72 25/24/46 28/48/47 29/64/75
f 30/37/59 29/63/75 32/66/76 33/38/60
f 29/62/75 28/26/47 31/49/48 32/67/76
f 33/38/60 32/66/76 35/69/77 36/39/61
f 32/65/76 31/28/49 34/50/50 35/70/77
f 36/39/61 35/69/77 38/72/78 39/40/62
f 35/68/77 34/30/50 37/51/51 38/73/79
f 39/40/62 38/72/78 41/74/71 42/41/63
s 7
f 38/71/80 37/32/52 40/52/53 41/75/81
