# This file uses centimeters as units for non-parametric coordinates.

mtllib PedrinhaC.mtl
g default
v -0.567307 0.009512 0.595037
v -0.008241 0.009512 0.691810
v 0.550825 0.009512 0.595037
v -0.520354 1.601700 0.545639
v -0.008241 1.601700 0.678008
v 0.503872 1.601700 0.545639
v -0.646172 1.601700 0.006860
v -0.008241 1.601700 0.006860
v 0.629689 1.601700 0.006860
v -0.520354 1.601700 -0.531918
v -0.008241 1.601700 -0.664287
v 0.503872 1.601700 -0.531918
v -0.567307 0.009512 -0.581316
v -0.008241 0.009512 -0.678089
v 0.550825 0.009512 -0.581316
v -0.659291 0.009512 0.006860
v -0.008241 0.009512 0.006860
v 0.642808 0.009512 0.006860
v -0.836847 0.940548 0.651727
v -0.716111 1.401572 0.597089
v -0.008241 0.938638 1.017988
v -0.008241 1.404570 0.906523
v 0.682548 1.391236 0.760169
v 0.781201 0.933272 0.874194
v -0.724019 1.175312 -0.746187
v -0.787715 0.660732 -0.813200
v -0.008241 1.406225 -0.866223
v -0.008241 0.925867 -0.963104
v 0.771935 0.663962 -0.813939
v 0.708773 1.172723 -0.747488
v 0.917403 0.937758 0.006860
v 0.817259 1.410679 0.006860
v -0.962854 0.912418 -0.174429
v -0.869938 1.400313 -0.121238
vt 0.375000 0.375000
vt 0.500000 0.375000
vt 0.625000 0.375000
vt 0.375000 0.500000
vt 0.625000 0.750000
vt 0.375000 0.875000
vt 0.500000 0.875000
vt 0.625000 0.875000
vt 0.375000 1.000000
vt 0.500000 1.000000
vt 0.625000 1.000000
vt 0.125000 0.171500
vt 0.382512 0.625000
vt 0.625000 0.578976
vt 0.875000 0.089580
vt 0.849435 0.125000
vt 0.500000 0.000000
vt 0.375000 0.096167
vt 0.625000 0.000000
vt 0.500000 0.095970
vt 0.500000 0.185495
vt 0.375000 0.250000
vt 0.625000 0.181132
vt 0.500000 0.250000
vt 0.500000 0.500000
vt 0.375000 0.578500
vt 0.625000 0.500000
vt 0.500000 0.563963
vt 0.375000 0.660863
vt 0.500000 0.655350
vt 0.375000 0.750000
vt 0.625000 0.660420
vt 0.500000 0.750000
vt 0.875000 0.000000
vt 0.750000 0.095879
vt 0.750000 0.000000
vt 0.625000 0.095415
vt 0.875000 0.171024
vt 0.875000 0.250000
vt 0.750000 0.250000
vt 0.750000 0.187494
vt 0.625000 0.250000
vt 0.125000 0.000000
vt 0.250000 0.000000
vt 0.125000 0.089138
vt 0.375000 0.000000
vt 0.250000 0.093261
vt 0.250000 0.184102
vt 0.125000 0.250000
vt 0.375000 0.184514
vt 0.250000 0.250000
vn 0.000000 1.000000 -0.000000
vn 0.000000 1.000000 -0.000000
vn 0.000000 1.000000 0.000000
vn 0.000000 1.000000 0.000000
vn 0.000000 1.000000 0.000000
vn 0.000000 1.000000 0.000000
vn 0.000000 1.000000 0.000000
vn 0.000000 1.000000 0.000000
vn 0.000000 1.000000 0.000000
vn 0.000000 -1.000000 0.000000
vn 0.000000 -1.000000 0.000000
vn 0.000000 -1.000000 0.000000
vn 0.000000 -1.000000 0.000000
vn 0.000000 -1.000000 0.000000
vn 0.000000 -1.000000 0.000000
vn 0.000000 -1.000000 -0.000000
vn 0.000000 -1.000000 -0.000000
vn 0.000000 -1.000000 0.000000
vn -0.961313 0.216701 0.170050
vn -0.961313 0.216701 0.170050
vn -0.977723 0.209822 -0.005677
vn -0.974620 0.204036 -0.092115
vn -0.393574 0.211571 0.894616
vn -0.348287 -0.070544 0.934730
vn -0.152074 -0.178605 0.972098
vn -0.393574 0.211571 0.894616
vn 0.189217 0.251844 0.949090
vn 0.189217 0.251844 0.949090
vn 0.189217 0.251844 0.949090
vn 0.189217 0.251844 0.949090
vn 0.960436 0.225182 0.163875
vn 0.960436 0.225182 0.163875
vn 0.978695 0.201056 -0.041630
vn 0.923570 0.381479 -0.038645
vn -0.934255 0.182678 -0.306262
vn -0.934255 0.182678 -0.306262
vn -0.230131 0.172501 -0.957749
vn -0.230131 0.172501 -0.957749
vn -0.001632 0.177379 -0.984141
vn -0.001574 0.177379 -0.984141
vn 0.228609 0.172801 -0.958060
vn 0.228609 0.172801 -0.958059
vn 0.961671 0.174306 -0.211677
vn 0.936247 0.270920 -0.223705
vn -0.307993 -0.234412 0.922058
vn -0.078835 -0.287080 0.954657
vn 0.164851 -0.324758 0.931320
vn 0.164851 -0.324758 0.931320
vn -0.263286 0.639055 0.722696
vn -0.027809 0.723583 0.689677
vn -0.040497 0.720216 0.692567
vn -0.263286 0.639055 0.722696
vn 0.155339 0.757426 0.634173
vn 0.155339 0.757426 0.634173
vn -0.267674 0.594922 -0.757904
vn 0.000670 0.617351 -0.786688
vn 0.000950 0.617351 -0.786688
vn -0.267674 0.594922 -0.757904
vn 0.267837 0.594698 -0.758023
vn 0.267837 0.594698 -0.758023
vn -0.108737 -0.325059 -0.939422
vn 0.000424 -0.326933 -0.945048
vn 0.000243 -0.326933 -0.945048
vn -0.108737 -0.325059 -0.939422
vn 0.108977 -0.324921 -0.939442
vn 0.108977 -0.324921 -0.939442
vn 0.954303 -0.296847 0.034467
vn 0.945364 -0.310636 -0.098957
vn 0.945364 -0.310636 -0.098957
vn 0.954245 -0.295135 0.048078
vn 0.948304 -0.280846 0.147803
vn 0.948304 -0.280846 0.147803
vn 0.777540 0.578175 -0.247276
vn 0.756231 0.649890 -0.075884
vn 0.689344 0.708807 0.149661
vn 0.689344 0.708807 0.149661
vn -0.928409 -0.347782 -0.130785
vn -0.948910 -0.312574 0.043212
vn -0.948387 -0.315751 0.029376
vn -0.928409 -0.347782 -0.130785
vn -0.946342 -0.285435 0.151536
vn -0.946342 -0.285435 0.151536
vn -0.710151 0.641606 -0.289875
vn -0.721541 0.672032 -0.166590
vn -0.721366 0.691153 -0.044031
vn -0.710151 0.641606 -0.289875
vn -0.697716 0.699514 0.154507
vn -0.697716 0.699514 0.154507
s 1
g Pedrinha_3
usemtl initialShadingGroup
f 4/22/1 5/24/2 8/2/3 7/1/4
f 5/24/2 6/42/5 9/3/6 8/2/3
f 7/1/4 8/2/3 11/25/7 10/4/8
f 8/2/3 9/3/6 12/27/9 11/25/7
s 2
f 13/31/10 14/33/11 17/7/12 16/6/13
f 14/33/11 15/5/14 18/8/15 17/7/12
f 16/6/13 17/7/12 2/10/16 1/9/17
f 17/7/12 18/8/15 3/11/18 2/10/16
s 3
f 19/18/19 20/50/20 34/48/21 33/47/22
s 4
f 20/50/23 19/18/24 21/20/25 22/21/26
s off
f 22/21/27 21/20/28 24/37/29 23/23/30
s 5
f 23/23/31 24/37/32 31/35/33 32/41/34
s 3
f 25/12/35 26/45/36 33/47/22 34/48/21
s 6
f 26/13/37 25/26/38 27/28/39 28/30/40
f 28/30/40 27/28/39 30/14/41 29/32/42
s 5
f 29/15/43 30/16/44 32/41/34 31/35/33
s 4
f 1/46/45 2/17/46 21/20/25 19/18/24
f 2/17/46 3/19/47 24/37/48 21/20/25
s 7
f 20/50/49 22/21/50 5/24/51 4/22/52
f 22/21/50 23/23/53 6/42/54 5/24/51
s 8
f 10/4/55 11/25/56 27/28/57 25/26/58
f 11/25/56 12/27/59 30/14/60 27/28/57
s 9
f 26/29/61 28/30/62 14/33/63 13/31/64
f 28/30/62 29/32/65 15/5/66 14/33/63
s 10
f 18/36/67 15/34/68 29/15/69 31/35/70
f 3/19/71 18/36/67 31/35/70 24/37/72
s 5
f 32/41/34 30/38/44 12/39/73 9/40/74
f 23/23/75 32/41/34 9/40/74 6/42/76
s 11
f 13/43/77 16/44/78 33/47/79 26/45/80
f 16/44/78 1/46/81 19/18/82 33/47/79
s 12
f 25/12/83 34/48/84 7/51/85 10/49/86
f 34/48/84 20/50/87 4/22/88 7/51/85
